<?xml version="1.0" encoding="UTF-8" standalone="no"?>
<!-- Created with Inkscape (http://www.inkscape.org/) -->

<svg
   xmlns:dc="http://purl.org/dc/elements/1.1/"
   xmlns:cc="http://creativecommons.org/ns#"
   xmlns:rdf="http://www.w3.org/1999/02/22-rdf-syntax-ns#"
   xmlns:svg="http://www.w3.org/2000/svg"
   xmlns="http://www.w3.org/2000/svg"
   xmlns:xlink="http://www.w3.org/1999/xlink"
   xmlns:sodipodi="http://sodipodi.sourceforge.net/DTD/sodipodi-0.dtd"
   xmlns:inkscape="http://www.inkscape.org/namespaces/inkscape"
   width="210mm"
   height="297mm"
   viewBox="0 0 210 297"
   version="1.1"
   id="svg8"
   inkscape:version="0.92.1 r15371"
   sodipodi:docname="on-off-03.svg">
  <defs
     id="defs2">
    <linearGradient
       inkscape:collect="always"
       id="on-off-linearGradient3760">
      <stop
         offset="0"
         style="stop-color:#cccccc"
         id="stop3762" />
      <stop
         offset="1"
         style="stop-color:#cccccc;stop-opacity:0"
         id="stop3764" />
    </linearGradient>
    <filter
       inkscape:collect="always"
       x="-.032351"
       y="-1.1431"
       color-interpolation-filters="sRGB"
       width="1.0647"
       height="3.2861"
       id="on-off-filter3892">
      <feGaussianBlur
         inkscape:collect="always"
         stdDeviation="1.0103417"
         id="feGaussianBlur3894" />
    </filter>
    <filter
       inkscape:collect="always"
       x="-0.102"
       y="-.28476"
       color-interpolation-filters="sRGB"
       width="1.204"
       height="1.5695"
       id="on-off-filter4010">
      <feGaussianBlur
         inkscape:collect="always"
         stdDeviation="2.8475891"
         id="feGaussianBlur4012" />
    </filter>
    <linearGradient
       inkscape:collect="always"
       x1="50"
       y1="42"
       gradientTransform="matrix(0.11075458,0,0,0.25440746,2.2326452,57.400185)"
       x2="49.5"
       gradientUnits="userSpaceOnUse"
       xlink:href="#on-off-linearGradient3760"
       y2="21.5"
       id="on-off-linearGradient4080" />
    <filter
       style="color-interpolation-filters:sRGB"
       inkscape:collect="always"
       x="-0.032350998"
       y="-1.1431"
       width="1.0647"
       height="3.2860999"
       id="on-off-filter3892-3">
      <feGaussianBlur
         inkscape:collect="always"
         stdDeviation="1.0103417"
         id="feGaussianBlur3894-9" />
    </filter>
    <linearGradient
       inkscape:collect="always"
       xlink:href="#on-off-linearGradient3760"
       id="on-off-linearGradient625"
       gradientUnits="userSpaceOnUse"
       gradientTransform="matrix(0.11075458,0,0,0.25440746,2.2326452,57.400185)"
       x1="50"
       y1="42"
       x2="49.5"
       y2="21.5" />
  </defs>
  <sodipodi:namedview
     id="base"
     pagecolor="#ffffff"
     bordercolor="#666666"
     borderopacity="1.0"
     inkscape:pageopacity="0.0"
     inkscape:pageshadow="2"
     inkscape:zoom="7.9195959"
     inkscape:cx="72.370941"
     inkscape:cy="1089.4759"
     inkscape:document-units="mm"
     inkscape:current-layer="layer1"
     showgrid="false"
     gridtolerance="1"
     objecttolerance="1"
     guidetolerance="1"
     inkscape:window-width="1600"
     inkscape:window-height="837"
     inkscape:window-x="-8"
     inkscape:window-y="-8"
     inkscape:window-maximized="1" />
  <metadata
     id="metadata5">
    <rdf:RDF>
      <cc:Work
         rdf:about="">
        <dc:format>image/svg+xml</dc:format>
        <dc:type
           rdf:resource="http://purl.org/dc/dcmitype/StillImage" />
        <dc:title></dc:title>
      </cc:Work>
    </rdf:RDF>
  </metadata>
  <g
     inkscape:label="Layer 1"
     inkscape:groupmode="layer"
     id="layer1">
    <g
       id="obj-body"
       transform="translate(-15.799996,-73.071748)">
      <rect
         x="15.830717"
         y="73.063148"
         width="18.785416"
         height="8.2296"
         ry="1.3716265"
         rx="1.3229166"
         style="fill:#666666;fill-rule:evenodd;stroke-width:0.26458332"
         id="rect3960" />
      <rect
         x="15.830717"
         y="73.063148"
         width="18.785416"
         height="7.9375"
         ry="1.3229166"
         rx="1.3229166"
         style="fill:#b3b3b3;fill-rule:evenodd;stroke-width:0.26458332"
         id="rect3962" />
      <rect
         x="16.095301"
         y="73.327728"
         width="18.25625"
         height="7.4083333"
         ry="1.0583333"
         rx="1.0583333"
         style="fill:#4d4d4d;fill-rule:evenodd;stroke-width:0.26458332"
         id="rect3964" />
      <g
         transform="matrix(0.26458333,0,0,0.26458333,10.425657,-188.48882)"
         style="opacity:0.8;fill:#ff8080"
         id="text4076">
        <path
           d="m 63.815,1003.8 c -10e-7,-0.8021 0.11995,-1.4753 0.35986,-2.0195 0.17904,-0.4011 0.42342,-0.7609 0.73315,-1.0796 0.30973,-0.3187 0.649,-0.555 1.0178,-0.70901 0.49056,-0.20767 1.0563,-0.31151 1.6973,-0.31152 1.1602,10e-6 2.0885,0.35983 2.7849,1.07963 0.69644,0.7197 1.0447,1.7205 1.0447,3.0024 -8e-6,1.2712 -0.34555,2.2657 -1.0366,2.9836 -0.69109,0.718 -1.6149,1.0769 -2.7715,1.0769 -1.1709,0 -2.1019,-0.3571 -2.793,-1.0715 -0.69108,-0.7143 -1.0366,-1.6981 -1.0366,-2.9514 z m 1.6382,-0.054 c -2e-6,0.8916 0.20589,1.5675 0.61768,2.0276 0.41178,0.4601 0.93457,0.6902 1.5684,0.6902 0.63378,0 1.1539,-0.2283 1.5603,-0.6849 0.40641,-0.4565 0.60961,-1.1413 0.60962,-2.0544 -6e-6,-0.9023 -0.19784,-1.5755 -0.5935,-2.0195 -0.39568,-0.444 -0.92115,-0.666 -1.5764,-0.666 -0.65528,0 -1.1834,0.2247 -1.5845,0.674 -0.40104,0.4494 -0.60156,1.1271 -0.60156,2.033 z"
           inkscape:connector-curvature="0"
           id="path3287" />
        <path
           d="m 72.699,1007.7 v -7.874 h 5.3979 v 1.332 h -3.8081 v 1.8637 h 3.2871 v 1.3321 h -3.2871 v 3.3462 z"
           inkscape:connector-curvature="0"
           id="path3289" />
        <path
           d="m 79.423,1007.7 v -7.874 h 5.398 v 1.332 h -3.8081 v 1.8637 H 84.3 v 1.3321 h -3.2871 v 3.3462 z"
           inkscape:connector-curvature="0"
           id="path3291" />
      </g>
      <rect
         x="101"
         y="1020.4"
         width="67"
         height="24"
         ry="3.4286001"
         rx="3.8841"
         transform="matrix(0.08551042,0,0,0.21565393,8.443146,-145.60969)"
         style="opacity:0.55513;fill:#008000;fill-rule:evenodd;filter:url(#on-off-filter4010)"
         id="rect3988" />
      <path
         inkscape:connector-curvature="0"
         style="opacity:0.8;fill:#00d400;stroke-width:0.26458332"
         d="m 18.030727,77.137723 c 0,-0.212222 0.03174,-0.39034 0.09521,-0.534326 0.04737,-0.106124 0.11203,-0.201321 0.193979,-0.285644 0.08195,-0.08432 0.171715,-0.146844 0.269293,-0.18759 0.129794,-0.05495 0.279479,-0.08242 0.449077,-0.08242 0.30697,0 0.552583,0.0952 0.736839,0.285644 0.184266,0.19042 0.27641,0.455215 0.27641,0.794385 -2e-6,0.336338 -0.09143,0.599466 -0.274267,0.789411 -0.182851,0.189971 -0.427276,0.284929 -0.733293,0.284929 -0.309801,0 -0.556128,-0.09448 -0.738981,-0.283501 -0.182849,-0.188991 -0.274267,-0.449289 -0.274267,-0.780891 z m 0.43344,-0.01429 c 0,0.235902 0.05448,0.414734 0.163428,0.536469 0.10895,0.121735 0.247272,0.182615 0.414973,0.182615 0.167687,0 0.305302,-0.0604 0.412829,-0.181213 0.107529,-0.120782 0.161293,-0.301969 0.161295,-0.54356 -1e-6,-0.238733 -0.05235,-0.416851 -0.15703,-0.534326 -0.10469,-0.117475 -0.243721,-0.176212 -0.417089,-0.176212 -0.173376,0 -0.313108,0.05945 -0.419232,0.178329 -0.106109,0.118904 -0.159163,0.298212 -0.159163,0.537898 z"
         id="path3294" />
      <path
         inkscape:connector-curvature="0"
         style="opacity:0.8;fill:#00d400;stroke-width:0.26458332"
         d="m 20.382608,78.169598 v -2.083355 h 0.409284 l 0.852673,1.391258 v -1.391258 h 0.390816 v 2.083355 h -0.422063 l -0.839867,-1.358582 v 1.358582 z"
         id="path3296" />
      <rect
         x="101"
         y="1020.4"
         width="67"
         height="24"
         transform="matrix(0.10623835,0,0,0.21565393,15.624136,-145.64749)"
         rx="3.8841"
         style="opacity:0.55513;fill:#ff0000;fill-rule:evenodd;filter:url(#on-off-filter4010)"
         ry="3.4286001"
         id="rect4058" />
    </g>
    <g
       id="slide-top-when-off"
       transform="translate(-2.4787083,-58.495902)">
      <rect
         x="2.4787083"
         y="58.651661"
         width="10.847917"
         height="7.9375"
         ry="1.3229166"
         rx="1.3559896"
         style="fill:#2b0000;fill-rule:evenodd;stroke-width:0.26458332"
         id="rect4060" />
      <rect
         x="2.4787083"
         y="58.651661"
         width="10.583333"
         height="7.9375"
         ry="1.3229166"
         rx="1.3229166"
         style="fill:#b3b3b3;fill-rule:evenodd;stroke-width:0.26458332"
         id="rect4062" />
      <rect
         x="2.7432909"
         y="58.916245"
         width="10.054167"
         height="7.4083333"
         ry="1.0583333"
         rx="1.0583333"
         style="fill:#ffffff;fill-rule:evenodd;stroke-width:0.26458332"
         id="rect4064" />
      <rect
         x="3.0078745"
         y="59.180828"
         width="9.5249996"
         height="6.614583"
         ry="1.0176404"
         rx="0.79374999"
         style="fill:url(#on-off-linearGradient4080);fill-rule:evenodd;stroke-width:0.26458332"
         id="rect4066" />
      <rect
         x="12.374"
         y="68.333"
         width="74.953003"
         height="2.1213"
         transform="matrix(0.11127581,0,0,0.09203531,2.2860912,59.339581)"
         rx="2.5953"
         style="opacity:0.15589001;fill:#666666;fill-rule:evenodd;filter:url(#on-off-filter3892)"
         ry="0.26357001"
         id="rect4068" />
      <rect
         x="12.374"
         y="68.333"
         width="74.953003"
         height="2.1213"
         ry="0.26357001"
         rx="2.5953"
         transform="matrix(0.10774627,0,0,0.09203531,2.3297472,53.079539)"
         style="opacity:0.15589001;fill:#666666;fill-rule:evenodd;filter:url(#on-off-filter3892)"
         id="rect4070" />
    </g>
    <g
       id="slide-top-when-on"
       transform="translate(5.5610359,-58.514405)">
      <rect
         x="2.4787083"
         y="58.651661"
         width="10.847917"
         height="7.9375"
         ry="1.3229166"
         rx="1.3559896"
         style="fill:#2b0000;fill-rule:evenodd;stroke-width:0.26458332"
         id="rect4060-3" />
      <rect
         x="2.4787083"
         y="58.651661"
         width="10.583333"
         height="7.9375"
         ry="1.3229166"
         rx="1.3229166"
         style="fill:#b3b3b3;fill-rule:evenodd;stroke-width:0.26458332"
         id="rect4062-9" />
      <rect
         x="2.7432909"
         y="58.916245"
         width="10.054167"
         height="7.4083333"
         ry="1.0583333"
         rx="1.0583333"
         style="fill:#ffffff;fill-rule:evenodd;stroke-width:0.26458332"
         id="rect4064-1" />
      <rect
         x="3.0078745"
         y="59.180828"
         width="9.5249996"
         height="6.614583"
         ry="1.0176404"
         rx="0.79374999"
         style="fill:url(#on-off-linearGradient625);fill-rule:evenodd;stroke-width:0.26458332"
         id="rect4066-3" />
      <rect
         x="12.374"
         y="68.333"
         width="74.953003"
         height="2.1213"
         transform="matrix(0.11127581,0,0,0.09203531,2.2860912,59.339581)"
         rx="2.5953"
         style="opacity:0.15589001;fill:#666666;fill-rule:evenodd;filter:url(#on-off-filter3892-3)"
         ry="0.26357001"
         id="rect4068-1" />
      <rect
         x="12.374"
         y="68.333"
         width="74.953003"
         height="2.1213"
         ry="0.26357001"
         rx="2.5953"
         transform="matrix(0.10774627,0,0,0.09203531,2.3297472,53.079539)"
         style="opacity:0.15589001;fill:#666666;fill-rule:evenodd;filter:url(#on-off-filter3892-3)"
         id="rect4070-3" />
    </g>
  </g>
</svg>
