<?xml version="1.0" encoding="UTF-8" standalone="no"?>
<svg
   xmlns:dc="http://purl.org/dc/elements/1.1/"
   xmlns:cc="http://creativecommons.org/ns#"
   xmlns:rdf="http://www.w3.org/1999/02/22-rdf-syntax-ns#"
   xmlns:svg="http://www.w3.org/2000/svg"
   xmlns="http://www.w3.org/2000/svg"
   xmlns:xlink="http://www.w3.org/1999/xlink"
   xmlns:sodipodi="http://sodipodi.sourceforge.net/DTD/sodipodi-0.dtd"
   xmlns:inkscape="http://www.inkscape.org/namespaces/inkscape"
   width="210mm"
   height="297mm"
   viewBox="0 0 210 297"
   version="1.1"
   id="svg8"
   sodipodi:docname="icon-watson.svg">
  <defs
     id="icon-watson-defs">
  </defs>
  
  <metadata
     id="metadata5">
    <rdf:RDF>
      <cc:Work
         rdf:about="">
        <dc:format>image/svg+xml</dc:format>
        <dc:type
           rdf:resource="http://purl.org/dc/dcmitype/StillImage" />
        <dc:title />
      </cc:Work>
    </rdf:RDF>
  </metadata>
  <g
     id="layer1">
     <g>
<path
     id="globe"
     style="fill:#000000"
     d="m 18.988281,2.4121094 c -0.0037,0.019675 0.0036,0.036587 -0.002,0.056641 -0.0043,0.015572 0.0038,-0.032814 0.0059,-0.048828 -0.0023,-0.00658 -0.0021,-0.00277 -0.0039,-0.00781 z M 12.296875,4.7304688 C 11.464844,4.6900391 10.625781,4.775 9.8007812,5 c -0.3,0.1 -0.5003906,0.5007812 -0.4003906,0.8007812 0.1,0.3 0.3988262,0.4984373 0.7988284,0.3984376 1,-0.3 2.101562,-0.2996122 3.101562,-0.099609 -1.6,0.8 -3.4003904,2.7011739 -4.9003904,5.2011716 -0.5,0.9 -1.0007812,1.898438 -1.3007812,2.898438 -0.4,-0.4 -0.7,-0.799219 -1,-1.199219 -0.8,-1.3 -0.9,-2.399219 -0.5,-3.1992188 0.5,-0.8 1.6011718,-1.3011718 3.2011718,-1.2011718 C 9.1007819,8.5996066 9.4,8.3 9.5,8 9.5,7.7 9.2003906,7.4007813 8.9003906,7.3007812 6.8003906,7.1007812 5.3,7.7996094 4.5,9.0996094 3.8,10.299609 4,11.9 5,13.5 c 0.4,0.7 0.9996094,1.3 1.5996094,2 -0.1,0.5 -0.1988281,1.000391 -0.2988282,1.400391 V 18 c -0.7,-0.9 -1.2,-1.9 -1.5,-3 C 4.7007813,14.7 4.4,14.5 4,14.5 c -0.3,0.1 -0.5,0.400781 -0.5,0.800781 0.6,2.3 1.9996094,4.3 4.0996094,5.5 C 8.9996094,21.600781 10.5,22 12,22 c 3,0 5.9,-1.500781 7.5,-4.300781 2.4,-4.1 0.900781,-9.3988284 -3.199219,-11.7988284 -1.25,-0.6875 -2.617187,-1.102539 -4.003906,-1.1699218 z m -5.7441406,0.099609 c 0.018102,0.00789 0.015694,0.00892 0.037109,0.017578 0.008,0.00324 -0.013198,-0.011252 -0.021484,-0.013672 -0.00509,-0.00149 -0.010493,-0.00252 -0.015625,-0.00391 z M 1.1875,6.7675781 c 0.010582,0.00608 0.022389,0.00997 0.033203,0.015625 0.00274,-0.00191 0.0051,-0.00203 0.00781,-0.00391 -0.022546,-0.0044 -0.053209,-0.018726 -0.041016,-0.011719 z m 0.066406,0.017578 c 7.011e-4,0.00423 0.00124,0.013141 0.00195,0.017578 0.00445,0.00215 0.0092,0.00374 0.013672,0.00586 -0.00225,-0.00622 -0.00152,-0.013351 -0.00391,-0.019531 -0.00147,-0.00379 -0.00717,-8.48e-4 -0.011719,-0.00391 z M 15.080078,6.8535156 C 15.275781,6.8638672 15.449609,6.9125 15.599609,7 c 3.5,2 4.701172,6.599609 2.701172,10.099609 -1,1.7 -4.800781,1.5 -8.300781,-0.5 -0.8,-0.4 -1.4996094,-1 -2.0996094,-1.5 0.5,-1 0.9,-2.099218 1.5,-3.199218 C 11.325391,8.5753878 13.710156,6.7810547 15.080078,6.8535156 Z M 7.6992188,16.5 9.5,17.699219 c 2.1,1.2 4.2,1.800781 6,1.800781 h 0.599609 c -2.2,1.5 -5.298828,1.700781 -7.7988278,0.300781 -0.5999999,-0.3 -0.9011718,-1.301172 -0.7011718,-2.701172 0,-0.2 0.099609,-0.399609 0.099609,-0.599609 z" />
  <path
     id="ray1"
     d="m 0.55863154,6.2031768 c -0.157873,0.02428 -0.3015624,0.1300782 -0.4140624,0.2988282 -0.2000001,0.2999999 -0.09883,0.7007812 0.2011718,0.8007812 L 2.6445691,8.6016138 c 0.1,0.1 0.2007812,0.09961 0.3007812,0.09961 0.2,0 0.4,-0.09883 0.5,-0.298828 0.2,-0.3 0.09883,-0.7007809 -0.2011719,-0.8007809 L 0.94535034,6.3027862 c -0.075,-0.05 -0.1511724,-0.081641 -0.2246094,-0.095703 -0.05508,-0.010547 -0.1094844,-0.011963 -0.1621094,-0.00391 z"
     inkscape:connector-curvature="0" />
  <path
     id="ray2"
     d="m 5.7721481,1.6044028 c -0.06182,-0.00809 -0.125391,-0.00664 -0.1875,0.00391 -0.08281,0.014063 -0.16328,0.04375 -0.238281,0.09375 -0.3,0.199966 -0.400781,0.6003906 -0.300781,0.9003907 l 1.199219,2 c 0.1,0.1999999 0.3,0.3007812 0.5,0.3007812 0.1,0 0.200781,-0.099609 0.300781,-0.099609 0.3,-0.1999998 0.40039,-0.6003906 0.40039,-0.9003906 l -1.201171,-2 C 6.1323041,1.7344809 5.9575971,1.628683 5.7721481,1.6044028 Z"
     inkscape:connector-curvature="0" />
  <path
     id="ray3"
     d="m 12.045586,0.00284401 c -0.3,0 -0.59961,0.2996094 -0.59961,0.5996094 V 2.8036253 c 0,0.4000005 0.29961,0.6992187 0.59961,0.6992187 0.3,0 0.599609,-0.2996093 0.599609,-0.5996094 V 0.60245341 c 0,-0.3 -0.299609,-0.5996093 -0.599609,-0.5996094 z"
     inkscape:connector-curvature="0" />
  <path
     id="ray4"
     d="m 18.418633,1.7040155 c -0.185449,0.02428 -0.360157,0.1300782 -0.472657,0.2988281 l -1.201171,2 c -0.1,0.2 7.81e-4,0.6007804 0.300781,0.8007813 0.1,0.1 0.200781,0.099609 0.300781,0.099609 0.2,0 0.4,-0.1007818 0.5,-0.3007812 l 1.199219,-2 c 0.2,-0.3 0.100781,-0.6988282 -0.199219,-0.7988281 -0.075,-0.05 -0.157422,-0.081641 -0.240234,-0.095703 -0.06211,-0.010547 -0.125684,-0.011963 -0.1875,-0.00391 z"
     inkscape:connector-curvature="0" />
  <path
     d="m 23.471366,6.2040195 c -0.062,-0.00809 -0.12539,-0.00664 -0.1875,0.00391 -0.08281,0.014021 -0.163281,0.045699 -0.238281,0.095699 l -2.300781,1.2988282 c -0.3,0.2 -0.399219,0.6003911 -0.199219,0.9003911 0.1,0.2 0.3,0.300781 0.5,0.300781 0.1,0 0.200781,-0.0016 0.300781,-0.101563 l 2.298828,-1.2988279 c 0.4,-0.2 0.500782,-0.6003906 0.300782,-0.9003906 -0.1125,-0.16875 -0.288611,-0.2745483 -0.47461,-0.2988278 z"
     id="ray5"
     inkscape:connector-curvature="0" />

  </g>  
  </g>
</svg>
