<?xml version="1.0" encoding="UTF-8" standalone="no"?>
<!-- Created with Inkscape (http://www.inkscape.org/) -->

<svg
   xmlns:dc="http://purl.org/dc/elements/1.1/"
   xmlns:cc="http://creativecommons.org/ns#"
   xmlns:rdf="http://www.w3.org/1999/02/22-rdf-syntax-ns#"
   xmlns:svg="http://www.w3.org/2000/svg"
   xmlns="http://www.w3.org/2000/svg"
   xmlns:xlink="http://www.w3.org/1999/xlink"
   xmlns:sodipodi="http://sodipodi.sourceforge.net/DTD/sodipodi-0.dtd"
   xmlns:inkscape="http://www.inkscape.org/namespaces/inkscape"
   width="210mm"
   height="297mm"
   viewBox="0 0 210 297"
   version="1.1"
   id="svg1985"
   inkscape:version="0.92.1 r15371"
   sodipodi:docname="data-comp-db.svg">
  <defs
     id="defs1979">
    <linearGradient
       id="icon-database-gradiant-14">
      <stop
         offset="0"
         style="stop-color:#ffffff"
         id="stop6037-2" />
      <stop
         offset="1"
         style="stop-color:#ffffff;stop-opacity:0"
         id="stop6039-9" />
    </linearGradient>
    <linearGradient
       id="icon-database-gradiant-13">
      <stop
         offset="0"
         style="stop-color:rgb(150, 190, 255)"
         id="stop3343" />
      <stop
         offset="1"
         style="stop-color:rgb(9, 113, 159)"
         id="stop3345" />
    </linearGradient>
    <linearGradient
       inkscape:collect="always"
       x1="-90.914"
       y1="535.16"
       gradientTransform="translate(533.36,20.203)"
       x2="-83.844"
       gradientUnits="userSpaceOnUse"
       xlink:href="#icon-database-gradiant-13"
       y2="670.52"
       id="linearGradient4155" />
    <linearGradient
       inkscape:collect="always"
       x1="-139.4"
       y1="490.72"
       x2="-111.85"
       gradientUnits="userSpaceOnUse"
       xlink:href="#icon-database-gradiant-14"
       y2="632.14"
       id="linearGradient4157" />
    <linearGradient
       inkscape:collect="always"
       id="icon-database-gradiant-7">
      <stop
         offset="0"
         style="stop-color:#0f2543"
         id="stop4047" />
      <stop
         offset=".52692"
         style="stop-color:#3465a4"
         id="stop4049" />
      <stop
         offset="1"
         style="stop-color:#729fcf"
         id="stop4051" />
    </linearGradient>
    <filter
       color-interpolation-filters="sRGB"
       inkscape:collect="always"
       id="filter4146">
      <feGaussianBlur
         inkscape:collect="always"
         stdDeviation="4.2422908"
         id="feGaussianBlur4148" />
    </filter>
    <linearGradient
       inkscape:collect="always"
       x1="340.45"
       y1="71.25"
       gradientTransform="translate(-101,764.01)"
       x2="352.33"
       gradientUnits="userSpaceOnUse"
       xlink:href="#icon-database-gradiant-7"
       y2="59.571"
       id="linearGradient4179" />
    <linearGradient
       inkscape:collect="always"
       x1="340.45"
       y1="71.25"
       gradientTransform="translate(-87,764.01)"
       x2="352.33"
       gradientUnits="userSpaceOnUse"
       xlink:href="#icon-database-gradiant-7"
       y2="59.571"
       id="linearGradient4182" />
    <linearGradient
       inkscape:collect="always"
       x1="340.45"
       y1="71.25"
       gradientTransform="translate(-73,764.01)"
       x2="352.33"
       gradientUnits="userSpaceOnUse"
       y2="59.571"
       id="icon-database-gradiant-9">
      <stop
         offset="0"
         style="stop-color:#a40000"
         id="stop4039" />
      <stop
         offset=".52692"
         style="stop-color:#cc0000"
         id="stop4041" />
      <stop
         offset="1"
         style="stop-color:#f57a7a"
         id="stop4043" />
    </linearGradient>
    <linearGradient
       inkscape:collect="always"
       x1="152.56"
       y1="75.317"
       gradientTransform="translate(-73,764)"
       x2="152.56"
       gradientUnits="userSpaceOnUse"
       y2="55.859"
       id="icon-database-gradiant-8">
      <stop
         offset="0"
         style="stop-color:#204a87"
         id="stop3181" />
      <stop
         offset=".52692"
         style="stop-color:#3465a4"
         id="stop3187" />
      <stop
         offset="1"
         style="stop-color:#729fcf"
         id="stop3183" />
    </linearGradient>
    <linearGradient
       inkscape:collect="always"
       x1="436"
       y1="342.44"
       gradientTransform="translate(-73,764)"
       x2="208.25"
       gradientUnits="userSpaceOnUse"
       spreadMethod="reflect"
       xlink:href="#icon-database-gradiant-7"
       y2="159.94"
       id="linearGradient4191" />
    <linearGradient
       inkscape:collect="always"
       x1="436"
       y1="342.44"
       gradientTransform="translate(-71.828,766.59)"
       x2="208.25"
       gradientUnits="userSpaceOnUse"
       spreadMethod="reflect"
       y2="159.94"
       id="icon-database-gradiant-10">
      <stop
         offset="0"
         style="stop-color:#2e3436"
         id="stop4140" />
      <stop
         offset=".52692"
         style="stop-color:#888a85"
         id="stop4142" />
      <stop
         offset="1"
         style="stop-color:#d3d7cf"
         id="stop4144" />
    </linearGradient>
    <linearGradient
       inkscape:collect="always"
       x1="269.97"
       y1="511.97"
       gradientTransform="matrix(4.9627,0,0,4.9627,278.63,-3355.4)"
       x2="286.63"
       gradientUnits="userSpaceOnUse"
       spreadMethod="reflect"
       y2="511.97"
       id="icon-database-gradiant-11">
      <stop
         offset="0"
         style="stop-color:#497bb3"
         id="stop5497-7-4-9" />
      <stop
         offset=".20485"
         style="stop-color:#a5c4e6"
         id="stop5501-5-1-3" />
      <stop
         offset="1"
         style="stop-color:#3b5d8b"
         id="stop5499-8-9-2" />
    </linearGradient>
    <linearGradient
       inkscape:collect="always"
       x1="282.35999"
       y1="518.56"
       x2="286.63"
       gradientUnits="userSpaceOnUse"
       y2="527.34003"
       id="icon-database-gradiant-12">
      <stop
         offset="0"
         style="stop-color:#a5c4e6"
         id="stop5468-4-6-0" />
      <stop
         offset="1"
         style="stop-color:#497bb3"
         id="stop5470-8-1-6" />
    </linearGradient>
    <linearGradient
       inkscape:collect="always"
       x1="308.5"
       y1="522.60999"
       gradientTransform="matrix(4.1992,0,0,4.1992,407.33,-3062.9)"
       x2="327.78"
       gradientUnits="userSpaceOnUse"
       spreadMethod="reflect"
       xlink:href="#icon-database-gradiant-14"
       y2="520.33002"
       id="linearGradient11805-6-2" />
    <linearGradient
       inkscape:collect="always"
       x1="308.5"
       y1="522.60999"
       gradientTransform="matrix(4.1992,0,0,4.1992,407.33,-3015.8)"
       x2="327.78"
       gradientUnits="userSpaceOnUse"
       spreadMethod="reflect"
       xlink:href="#icon-database-gradiant-14"
       y2="520.33002"
       id="linearGradient11807-6-3" />
    <linearGradient
       inkscape:collect="always"
       x1="308.5"
       y1="522.60999"
       gradientTransform="matrix(4.1992,0,0,4.1992,407.33,-2971.6)"
       x2="327.78"
       gradientUnits="userSpaceOnUse"
       spreadMethod="reflect"
       xlink:href="#icon-database-gradiant-14"
       y2="520.33002"
       id="linearGradient11809-2-1" />
  </defs>
  <sodipodi:namedview
     id="base"
     pagecolor="#ffffff"
     bordercolor="#666666"
     borderopacity="1.0"
     inkscape:pageopacity="0.0"
     inkscape:pageshadow="2"
     inkscape:zoom="0.7"
     inkscape:cx="-153.65496"
     inkscape:cy="838.48159"
     inkscape:document-units="mm"
     inkscape:current-layer="layer1"
     showgrid="false"
     objecttolerance="1"
     guidetolerance="1"
     gridtolerance="1"
     inkscape:window-width="1920"
     inkscape:window-height="1001"
     inkscape:window-x="-9"
     inkscape:window-y="-9"
     inkscape:window-maximized="1" />
  <metadata
     id="metadata1982">
    <rdf:RDF>
      <cc:Work
         rdf:about="">
        <dc:format>image/svg+xml</dc:format>
        <dc:type
           rdf:resource="http://purl.org/dc/dcmitype/StillImage" />
        <dc:title />
      </cc:Work>
    </rdf:RDF>
  </metadata>
  <g
     inkscape:label="Layer 1"
     inkscape:groupmode="layer"
     id="layer1">
    <rect
       id="frame"
       style="opacity:1;fill:#e6e6e6;fill-opacity:0.86567161;stroke:#000080;stroke-width:0.59355515;stroke-linecap:round;stroke-linejoin:bevel;stroke-miterlimit:4;stroke-dasharray:none;stroke-opacity:1"
       ry="2.1666071"
       height="49.224026"
       width="195.35181"
       y="8.7495966"
       x="7.0234914" />
    <g
       transform="matrix(0.0758878,0,0,0.09097502,-7.8987171,-31.119003)"
       id="icon-cloud"
       inkscape:label="#g2878">
      <path
         d="m 417.2,525.08 c -32.47,0 -61.35,15.49 -79.62,39.5 -3.99,-0.75 -8.11,-1.13 -12.31,-1.13 -36.81,0 -66.66,29.86 -66.66,66.66 0,36.8 29.85,66.69 66.66,66.69 6.75,0 13.26,-1.01 19.4,-2.88 18.23,19.18 44.01,31.16 72.53,31.16 15.97,0 31.05,-3.75 44.44,-10.41 13.39,6.66 28.48,10.41 44.44,10.41 32.87,0 62.05,-15.9 80.28,-40.41 29.9,-0.25 54.06,-24.61 54.06,-54.56 0,-27.61 -20.53,-50.43 -47.15,-54.03 -17.15,-30.44 -49.78,-51 -87.19,-51 -15.97,0 -31.05,3.74 -44.44,10.4 -13.39,-6.66 -28.47,-10.4 -44.44,-10.4 z"
         style="fill:url(#linearGradient4155);fill-rule:evenodd"
         id="path2880"
         inkscape:connector-curvature="0" />
      <path
         inkscape:radius="30.304577"
         transform="translate(531.34,16.162)"
         inkscape:original="M -116.15625 547.125 C -135.20637 547.125 -151.56917 556.02512 -162.15625 569.9375 C -171.81969 582.65469 -187.8297 588.83378 -203.53125 585.90625 C -204.90493 585.64951 -206.42884 585.5 -208.09375 585.5 C -222.0535 585.5 -232.5 595.94654 -232.5 609.90625 C -232.5 610.46775 -232.40919 610.98732 -232.375 611.53125 C -208.17199 616.31879 -166.7837 614.5215 -118.34375 602.5 C -78.749823 592.67384 -34.914664 577.28984 8.84375 559.78125 C -0.97817672 551.87268 -13.453511 547.125 -27.28125 547.125 C -36.641906 547.125 -45.183256 549.25205 -52.90625 553.09375 C -64.755443 558.98774 -78.682057 558.98774 -90.53125 553.09375 C -98.254247 549.25205 -106.79559 547.125 -116.15625 547.125 z "
         d="m -116.15625,516.82031 c -28.48888,0 -54.18749,13.83514 -70.11523,34.76563 a 30.307607,30.307607 0 0 0 -0.0137,0.0176 c -2.76908,3.64414 -7.19208,5.35061 -11.6914,4.51171 -3.2597,-0.60836 -6.64275,-0.91992 -10.11719,-0.91992 -29.07836,0 -54.71094,25.63264 -54.71094,54.71094 0,3.82889 0.28632,5.12862 0.18555,3.52539 a 30.307607,30.307607 0 0 0 24.36328,27.82813 c 32.07089,6.34386 75.5397,3.47576 127.21094,-9.34766 41.695645,-10.34775 86.591686,-26.1669 131.146482,-43.99414 a 30.307607,30.307607 0 0 0 7.748047,-51.74024 C 12.878798,524.12331 -6.5169017,516.82031 -27.28125,516.82031 c -13.951456,0 -27.414366,3.31727 -39.121094,9.14063 -3.371584,1.67708 -7.261228,1.67708 -10.632812,0 -11.70672,-5.82335 -25.169634,-9.14063 -39.121094,-9.14063 z"
         sodipodi:type="inkscape:offset"
         style="fill:url(#linearGradient4157);fill-rule:evenodd"
         id="path2882" />
    </g>
    <g
       transform="matrix(0.10688478,0,0,0.08509203,-30.437832,2.8265103)"
       inkscape:label="Icon - Server"
       id="icon-server">
      <g
         class="Graphic"
         transform="matrix(0.0423,0,0,0.0423,319.39,59.128)"
         id="g10-5-2-5">
        <g
           id="g12-4-2-6">
          <g
             style="fill:#c7c7c7"
             id="g14-64-0-3">
            <path
               d="m 5903,2361 c 50,82 34,3995 -31,4149 -51,122 -1703,1495 -1789,1531 -1117,-7 -1870,-414 -1995,-629 -48,-270 -7,-4433 38,-4520 40,-76 2153,-833 2227,-851 67,-15 1493,229 1550,320 z"
               inkscape:connector-curvature="0"
               id="path16-1-5-8" />
          </g>
          <g
             style="fill:#000000"
             id="g18-6-5-5">
            <path
               d="m 5881,2374 2,-1 -2,2 c 0,-1 -1,-1 -1,-1 v -2 l 7,-3 -2,2 -5,1 5,-1 -2,2 z m 2,-1 2,-2 2,-2 5,-2 -5,4 5,-4 h 1 l -6,3 v 1 -1 z m 10,-6 h -1 1 -1 l 11,-6 -10,5 z m 11,-4 -11,4 v -1 z m 20,-15 c -2,-3 -4,-6 -7,-9 -2,-3 -5,-5 -8,-7 -5,-4 -12,-8 -20,-12 -7,-4 -15,-7 -24,-11 -9,-4 -19,-7 -30,-11 -21,-8 -47,-16 -75,-24 -29,-8 -61,-16 -95,-25 -136,-34 -313,-72 -494,-106 -181,-35 -364,-66 -511,-90 -73,-11 -138,-21 -189,-27 -25,-3 -47,-6 -65,-8 -9,-1 -17,-1 -24,-2 -4,0 -7,0 -10,-1 h -9 c -3,0 -5,0 -7,1 h -4 c -2,0 -3,0 -4,1 -2,0 -4,1 -7,2 -2,0 -5,1 -8,2 -3,1 -7,2 -11,3 -4,2 -8,3 -13,5 -10,3 -22,7 -35,12 -13,4 -28,9 -44,15 -33,11 -71,25 -115,40 -43,15 -91,32 -144,51 -209,75 -481,173 -753,274 -271,101 -542,203 -747,285 -51,21 -98,40 -140,57 -43,18 -80,34 -111,48 -16,7 -30,14 -42,20 -13,6 -24,12 -33,17 -5,2 -9,5 -13,7 -4,3 -8,5 -10,7 -4,3 -7,5 -9,7 -5,4 -7,8 -9,11 -1,2 -2,5 -4,9 0,3 -1,6 -1,9 -1,3 -1,7 -2,11 -1,4 -1,8 -2,13 0,9 -1,20 -3,32 0,13 -1,27 -2,42 -2,31 -4,69 -6,111 -2,43 -4,91 -5,144 -7,213 -14,504 -19,835 -11,662 -19,1482 -19,2144 0,308 2,583 5,791 1,52 2,100 3,143 1,43 3,82 4,115 1,34 3,62 4,85 1,12 2,22 3,30 1,5 1,9 1,13 1,3 2,7 2,10 l 1,4 2,4 c 9,15 20,30 33,46 14,16 30,32 48,49 35,32 80,66 135,101 107,70 249,142 423,207 173,65 377,124 608,167 231,43 489,70 769,72 h 6 l 5,-2 8,-4 c 2,-2 5,-3 8,-6 3,-2 6,-4 10,-6 l 12,-9 c 9,-6 19,-13 30,-22 11,-8 23,-17 37,-28 27,-20 58,-45 93,-73 35,-28 74,-59 116,-93 169,-136 385,-315 600,-497 215,-181 430,-366 593,-512 41,-37 79,-71 113,-103 34,-31 64,-59 89,-84 13,-13 24,-24 34,-35 11,-11 20,-20 28,-29 8,-9 14,-17 19,-23 3,-4 5,-8 7,-10 2,-4 4,-8 6,-11 0,-2 1,-5 2,-8 1,-3 2,-5 3,-9 1,-6 2,-13 3,-22 2,-8 3,-17 4,-28 1,-11 2,-22 3,-35 2,-25 4,-55 7,-89 1,-34 3,-72 5,-113 8,-166 14,-391 19,-648 10,-516 16,-1164 16,-1743 0,-389 -3,-747 -8,-1012 -1,-66 -2,-127 -4,-181 -1,-53 -3,-100 -5,-139 -1,-20 -2,-38 -3,-53 -1,-16 -2,-30 -3,-41 -1,-6 -1,-11 -2,-16 -1,-5 -1,-10 -2,-13 -1,-4 -1,-8 -2,-11 -1,-2 -1,-4 -2,-5 -1,-3 -2,-5 -3,-6 z m -37,21 12,-12 z m -6,9 c 1,3 1,7 2,11 0,4 1,9 1,15 1,11 3,24 4,39 0,15 1,33 2,52 2,39 4,86 6,139 1,53 2,114 4,180 5,264 7,622 7,1011 0,578 -5,1227 -15,1742 -6,257 -12,481 -19,646 -2,42 -4,79 -6,113 -2,33 -4,63 -6,88 -1,12 -2,24 -4,34 0,10 -2,18 -3,26 -1,7 -2,14 -3,18 0,3 -1,4 -1,6 0,1 -1,2 -1,2 0,1 -1,2 -2,4 -1,1 -3,4 -4,6 -5,6 -10,13 -17,21 -7,7 -16,17 -26,27 l -34,34 c -25,24 -54,52 -88,83 -33,31 -71,66 -112,102 -163,146 -377,330 -592,512 -215,181 -431,360 -598,495 -42,34 -81,65 -116,93 -35,28 -66,52 -93,73 -13,10 -26,20 -37,28 -10,8 -20,15 -28,21 -4,3 -8,6 -12,8 -3,2 -6,4 -8,6 -2,1 -4,2 -5,3 -276,-2 -528,-29 -755,-71 -228,-42 -429,-100 -600,-164 -169,-64 -308,-134 -413,-202 -51,-33 -94,-66 -128,-97 -17,-15 -31,-30 -43,-44 -10,-12 -19,-23 -26,-34 v -4 c -1,-3 -1,-7 -1,-11 -1,-8 -2,-18 -3,-28 -2,-23 -3,-51 -5,-84 -1,-33 -2,-71 -3,-115 -1,-42 -2,-90 -3,-142 -3,-208 -5,-482 -5,-790 0,-662 7,-1481 18,-2143 6,-330 12,-622 19,-834 2,-53 4,-101 6,-144 2,-42 3,-79 5,-109 1,-16 2,-30 3,-42 1,-12 2,-22 3,-31 0,-4 1,-8 1,-11 1,-4 1,-6 2,-9 v -2 c 0,-1 1,-1 2,-2 2,-1 4,-3 7,-5 4,-1 7,-4 11,-6 9,-5 19,-10 31,-16 12,-6 26,-12 41,-19 31,-14 67,-29 109,-47 42,-17 89,-37 140,-57 205,-82 475,-184 746,-284 271,-101 543,-200 752,-274 52,-19 101,-36 144,-51 43,-16 82,-29 114,-40 17,-6 31,-11 44,-16 13,-4 25,-8 35,-11 4,-2 9,-3 13,-4 4,-2 7,-3 10,-4 3,-1 5,-1 8,-2 l 3,-1 -2,-8 1,8 h 1 4 7 c 2,0 5,0 8,1 7,0 14,1 23,2 17,1 39,4 64,7 50,6 114,16 187,27 147,23 329,55 509,89 180,35 357,72 492,106 34,9 65,17 92,25 28,8 53,15 73,23 10,3 20,7 28,10 7,3 15,6 20,9 5,3 10,5 13,8 0,0 1,0 1,1 0,1 1,3 1,4 z M 4075,8017 c 1,0 1,-1 2,-1 h 6 v 14 l -8,-13 8,13 v 11 l -10,-23 c 0,0 1,-1 2,-1 z M 2110,7400 c 1,1 1,3 2,4 1,1 1,3 1,4 l -25,4 21,-11 1,-1 -1,1 1,-1 h 2 z m 39,-4498 v 3 c -1,0 -1,1 -2,1 l -5,-6 -17,-4 17,4 -2,-1 4,2 z m -7,-2 2,1 z m -16,-8 14,7 z m 14,7 -10,-11 z m 2217,-841 -2,-17 z m -4,-17 4,17 v 1 z"
               inkscape:connector-curvature="0"
               id="path20-8-2-2" />
          </g>
          <g
             style="fill:#ffffff;fill-opacity:0.54118;stroke:#ffffff;stroke-opacity:0.54118"
             id="g22-8-9-2">
            <path
               d="m 5822,2442 -52,22 -52,23 -52,23 -53,25 -53,25 -53,26 -53,26 -54,27 -54,27 -54,28 -55,28 -54,29 -55,29 -55,29 -111,60 -112,60 -112,60 -113,61 -114,60 -114,60 -114,59 -57,29 -57,29 -58,28 -57,28 -27,-6 -28,-7 -56,-13 -58,-14 -59,-13 -60,-14 -61,-14 -61,-14 -63,-14 -62,-14 -63,-15 -127,-28 -127,-28 -64,-14 -63,-14 -62,-13 -62,-13 -61,-13 -60,-13 -60,-13 -58,-12 -57,-12 -28,-5 -28,-6 -27,-5 -27,-6 -27,-5 -26,-5 -26,-5 -25,-6 -25,-4 -24,-5 -24,-5 -24,-4 -23,-4 -22,-5 -22,-4 -21,-3 -21,-4 -20,-4 52,16 52,16 53,16 54,15 55,16 55,15 57,16 56,15 57,16 58,15 116,31 117,30 118,31 118,31 117,30 116,31 58,15 57,16 57,15 56,16 55,15 55,16 54,15 53,16 52,16 52,16 1,60 2,61 1,61 1,63 1,64 2,64 1,65 1,66 1,67 1,67 1,68 v 69 l 1,69 1,70 1,70 v 71 l 1,71 v 72 l 1,72 1,73 1,146 1,147 v 149 l 1,149 2,299 1,300 1,149 1,148 1,147 1,146 1,73 v 72 l 1,72 1,71 v 71 l 1,71 1,69 1,70 v 68 l 1,68 1,67 1,67 1,66 1,65 1,65 2,63 1,63 1,62 2,61 1,60 1,-61 1,-61 v -63 l 1,-63 1,-64 1,-65 1,-66 1,-67 1,-67 1,-68 1,-69 2,-69 1,-70 1,-71 1,-71 1,-72 1,-72 2,-73 1,-73 1,-73 3,-148 3,-149 2,-151 3,-151 6,-303 5,-303 3,-151 3,-150 2,-149 3,-149 1,-73 2,-73 1,-73 1,-72 1,-71 1,-72 1,-70 2,-70 1,-70 1,-68 1,-68 1,-68 1,-66 1,-66 1,-65 1,-64 1,-64 v -62 l 1,-62 1,-60 110,-59 109,-59 109,-57 109,-58 108,-57 107,-58 107,-57 107,-58 105,-58 105,-58 104,-60 103,-60 51,-30 50,-31 51,-31 50,-31 50,-31 50,-32 49,-32 z"
               inkscape:connector-curvature="0"
               id="path24-1-0-2" />
          </g>
          <g
             style="fill:none"
             id="g28-1-8-4">
            <path
               d="m 5822,2442 c -549,232 -1156,606 -1768,901 -580,-138 -1417,-322 -1839,-396 543,169 1257,327 1800,496 32,1271 16,3196 48,4467 16,-1282 59,-3238 75,-4519 586,-317 1161,-601 1684,-949 z"
               inkscape:connector-curvature="0"
               id="path30-7-3-1" />
          </g>
          <g
             style="fill:#000000;fill-opacity:0.16078001;stroke:#ffffff;stroke-opacity:0.16078001"
             id="g32-7-8-2">
            <path
               d="m 2420,6628 10,14 10,13 11,13 12,13 12,12 12,12 14,12 13,12 14,12 15,11 15,11 16,11 15,11 17,10 16,10 17,11 18,9 18,10 18,9 18,8 19,9 19,8 19,8 19,8 40,15 40,14 41,12 41,11 42,10 41,9 42,8 41,6 41,6 41,3 21,2 20,1 19,1 h 20 20 19 l 19,-1 19,-1 18,-1 19,-1 17,-2 18,-3 17,-2 17,-3 17,-4 16,-4 15,-4 15,-4 15,-5 15,-5 -2,-1 h -1 l -5,-2 -6,-1 -7,-2 -8,-2 -10,-3 -10,-3 -12,-3 -13,-4 -14,-3 -15,-4 -16,-5 -16,-4 -18,-5 -18,-5 -19,-5 -20,-6 -20,-5 -21,-6 -22,-6 -22,-6 -22,-6 -23,-7 -24,-6 -48,-13 -49,-14 -50,-14 -50,-13 -50,-15 -50,-13 -49,-14 -49,-13 -23,-7 -24,-6 -23,-7 -22,-6 -22,-6 -21,-6 -21,-6 -20,-5 -19,-6 -19,-5 -18,-5 -17,-5 -16,-4 -15,-5 -15,-4 -13,-4 -12,-3 -12,-3 -10,-3 -9,-3 -7,-2 -7,-2 -5,-2 h -2 z"
               inkscape:connector-curvature="0"
               id="path34-1-0-4" />
          </g>
          <g
             style="fill:none"
             id="g38-5-0-1">
            <path
               d="m 2420,6628 c 201,289 833,431 1133,315 -53,-14 -1066,-293 -1133,-315 z"
               inkscape:connector-curvature="0"
               id="path40-7-9-6" />
          </g>
          <g
             style="fill:#ffffff;fill-opacity:0.38824002;stroke:#ffffff;stroke-opacity:0.38824002"
             id="g42-6-1-5">
            <path
               d="m 3454,6093 -936,-361 -9,4 -8,4 -8,4 -6,5 -6,6 -6,6 -5,7 -5,6 -4,7 -4,7 -3,7 -3,8 -3,8 -2,7 -3,15 -2,15 -2,14 v 6 7 5 6 5 4 4 l 1,4 v 2 2 1 1 l 146,51 1,1 1,1 1,1 1,2 2,2 1,3 3,3 2,3 3,4 3,4 3,4 4,5 4,4 4,6 5,4 10,12 10,11 13,12 13,12 14,13 15,12 17,13 17,12 19,12 19,11 21,11 22,10 11,4 11,5 12,4 12,4 13,3 12,3 13,3 13,3 13,2 13,1 14,2 14,1 h 14 15 15 l 15,-1 15,-2 15,-2 16,-2 16,-3 16,-4 16,-4 17,-5 17,-6 h 1 l 2,1 h 3 l 6,1 6,1 7,1 8,1 9,1 10,1 11,1 12,1 12,1 h 12 l 13,1 h 26 l 14,-1 13,-1 14,-1 13,-2 13,-2 12,-3 12,-3 12,-3 10,-5 11,-5 9,-6 8,-6 8,-8 3,-4 3,-4 3,-4 2,-4 2,-5 z"
               inkscape:connector-curvature="0"
               id="path44-7-9-3" />
          </g>
          <g
             style="fill:none"
             id="g48-57-2-8">
            <path
               d="m 3454,6093 -936,-361 c -97,34 -78,177 -78,177 l 146,51 c 0,0 204,319 566,194 0,0 269,48 302,-61 z"
               inkscape:connector-curvature="0"
               id="path50-0-5-4" />
          </g>
          <g
             style="fill:#606060"
             id="g52-5-4-9">
            <path
               d="m 3446,5971 c -311,-81 -622,-161 -933,-242 -12,44 -13,107 6,140 47,23 142,41 189,64 136,131 255,142 472,124 84,17 168,31 251,48 26,-51 33,-72 15,-134 z"
               inkscape:connector-curvature="0"
               id="path54-7-4-1" />
          </g>
          <g
             style="fill:none"
             id="g56-7-9-3">
            <path
               d="m 3446,5971 c -311,-81 -622,-161 -933,-242 -12,44 -13,107 6,140 47,23 142,41 189,64 136,131 255,142 472,124 84,17 168,31 251,48 26,-51 33,-72 15,-134 z"
               inkscape:connector-curvature="0"
               id="path58-8-9-9" />
          </g>
          <g
             style="fill:#ffffff;fill-opacity:0.4;stroke:#ffffff;stroke-opacity:0.4"
             id="g60-5-3-5">
            <path
               d="m 5856,2414 -1813,1017 7,4549 1775,-1494 z"
               inkscape:connector-curvature="0"
               id="path62-2-6-0" />
          </g>
          <g
             style="fill:none"
             id="g66-2-5-1">
            <path
               d="m 5856,2414 -1813,1017 7,4549 1775,-1494 z"
               inkscape:connector-curvature="0"
               id="path68-9-0-6" />
          </g>
          <g
             style="fill:#000000;fill-opacity:0.16078001;stroke:#ffffff;stroke-opacity:0.16078001"
             id="g70-9-2-1">
            <path
               d="m 2525,6916 10,13 11,12 10,13 11,11 11,12 11,11 12,11 12,10 12,10 12,10 13,10 12,9 13,9 13,8 27,17 28,15 28,14 28,13 29,11 29,11 30,9 30,8 29,8 30,6 30,5 30,4 30,3 30,2 29,2 h 29 l 29,-1 27,-2 28,-2 27,-3 26,-5 25,-5 24,-6 24,-6 22,-8 -2,-1 h -4 l -4,-2 -5,-1 -6,-2 -8,-2 -8,-2 -9,-2 -10,-3 -10,-3 -11,-3 -12,-3 -13,-4 -13,-3 -14,-4 -15,-4 -15,-4 -15,-5 -16,-4 -16,-5 -17,-4 -18,-5 -35,-10 -36,-10 -38,-10 -38,-10 -38,-11 -76,-21 -37,-10 -37,-11 -36,-10 -17,-4 -17,-5 -17,-5 -16,-4 -16,-5 -15,-4 -15,-4 -14,-4 -14,-4 -13,-4 -12,-3 -11,-3 -12,-3 -10,-3 -9,-3 -8,-2 -8,-3 -7,-1 -6,-2 -5,-2 -4,-1 z"
               inkscape:connector-curvature="0"
               id="path72-9-9-4" />
          </g>
          <g
             style="fill:none"
             id="g76-2-3-0">
            <path
               d="m 2525,6916 c 209,276 627,323 861,239 -39,-10 -810,-222 -861,-239 z"
               inkscape:connector-curvature="0"
               id="path78-7-5-4" />
          </g>
          <g
             style="fill:#000000;fill-opacity:0.16078001;stroke:#ffffff;stroke-opacity:0.16078001"
             id="g80-6-1-6">
            <path
               d="m 2680,7199 12,15 12,14 13,14 14,12 14,13 14,11 15,11 16,11 15,9 17,9 16,9 17,7 18,7 17,7 18,5 18,5 18,5 19,3 18,4 19,2 18,2 19,1 h 19 19 l 18,-1 19,-2 18,-2 19,-3 18,-4 18,-4 18,-5 17,-6 h -1 l -2,-1 h -3 l -4,-1 -3,-1 -5,-2 -5,-1 -6,-2 -6,-1 -6,-2 -7,-2 -8,-2 -8,-2 -8,-3 -9,-2 -9,-2 -19,-6 -20,-5 -22,-6 -22,-6 -23,-6 -23,-7 -48,-13 -48,-13 -23,-7 -23,-6 -23,-6 -21,-6 -21,-6 -19,-6 -9,-2 -9,-3 -9,-2 -8,-2 -8,-2 -7,-2 -7,-2 -6,-2 -6,-2 -5,-2 -5,-1 -5,-1 -3,-1 -3,-1 -3,-1 z"
               inkscape:connector-curvature="0"
               id="path82-0-7-1" />
          </g>
          <g
             style="fill:none"
             id="g86-0-3-9">
            <path
               d="m 2680,7199 c 121,163 355,213 540,149 -25,-6 -507,-139 -540,-149 z"
               inkscape:connector-curvature="0"
               id="path88-3-1-3" />
          </g>
          <g
             style="fill:#fcfcfc;fill-opacity:0.43922005;stroke:#ffffff;stroke-opacity:0.43922005"
             id="g90-5-4-3">
            <path
               d="m 2356,3259 -92,13 -17,2173 1425,399 35,-116 -1369,-365 z"
               inkscape:connector-curvature="0"
               id="path92-9-6-4" />
          </g>
          <g
             style="fill:none"
             id="g96-7-4-8">
            <path
               d="m 2356,3259 -92,13 -17,2173 1425,399 35,-116 -1369,-365 z"
               inkscape:connector-curvature="0"
               id="path98-7-2-7" />
          </g>
          <g
             style="fill:#000000;fill-opacity:0.23137004;stroke:#ffffff;stroke-opacity:0.23137004"
             id="g100-1-2-8">
            <path
               d="m 3700,4065 -2,61 -1340,-386 z"
               inkscape:connector-curvature="0"
               id="path102-64-6-6" />
          </g>
          <g
             style="fill:#000000;fill-opacity:0.23137004;stroke:#ffffff;stroke-opacity:0.23137004"
             id="g106-1-1-0">
            <path
               d="m 3720,4507 -3,61 -1339,-386 z"
               inkscape:connector-curvature="0"
               id="path108-3-2-4" />
          </g>
          <g
             style="fill:#000000;fill-opacity:0.23137004;stroke:#ffffff;stroke-opacity:0.23137004"
             id="g112-9-8-7">
            <path
               d="m 3700,4916 -2,61 -1340,-386 z"
               inkscape:connector-curvature="0"
               id="path114-09-9-4" />
          </g>
          <g
             style="fill:#000000;fill-opacity:0.23137004;stroke:#ffffff;stroke-opacity:0.23137004"
             id="g118-8-8-6">
            <path
               d="m 3700,5318 -2,61 -1340,-387 z"
               inkscape:connector-curvature="0"
               id="path120-3-8-0" />
          </g>
          <g
             style="fill:#9e9e9e"
             id="g124-5-6-2">
            <path
               d="m 2361,3309 1332,333 -11,2197 h 11 11 l 11,-2205 v -9 l -8,-2 -1341,-335 -2,11 z m 1340,335 -8,-2 v -8 h 11 z"
               inkscape:connector-curvature="0"
               id="path126-3-8-8" />
          </g>
        </g>
      </g>
    </g>
    <g
       transform="matrix(0.10857022,0,0,0.09511494,10.416086,-61.064879)"
       inkscape:label="Layer 1"
       id="icon-window">
      <path
         d="m 19.172,823.21 c -1.108,0 -2,0.892 -2,2 v 15.219 0.65625 193.88005 c 0,1.108 0.892,2 2,2 h 263.75 c 1.108,0 2,-0.892 2,-2 V 841.08525 840.429 825.21 c 0,-1.108 -0.892,-2 -2,-2 z"
         inkscape:connector-curvature="0"
         style="fill:url(#icon-database-gradiant-10);fill-rule:evenodd;filter:url(#filter4146)"
         id="path4129" />
      <path
         d="m 16,838.5 v 193.88 c 0,1.108 0.892,2 2,2 h 263.75 c 1.108,0 2,-0.892 2,-2 V 838.5 Z"
         inkscape:connector-curvature="0"
         style="fill:url(#linearGradient4191);fill-rule:evenodd"
         sodipodi:nodetypes="csssscc"
         id="rect3175" />
      <path
         d="m 18,820.62 c -1.108,0 -2,0.892 -2,2 v 15.219 0.65625 H 283.75 V 837.839 822.62 c 0,-1.108 -0.892,-2 -2,-2 z"
         inkscape:connector-curvature="0"
         style="fill:url(#icon-database-gradiant-8);fill-rule:evenodd"
         sodipodi:nodetypes="ssccccsss"
         id="rect3177" />
      <path
         d="m 268.71,823.74 h 9.0504 c 0.94551,0 1.7067,0.76119 1.7067,1.7067 v 8.2242 c 0,0.94551 -0.76119,1.7067 -1.7067,1.7067 H 268.71 c -0.94551,0 -1.7067,-0.76119 -1.7067,-1.7067 v -8.2242 c 0,-0.9455 0.76119,-1.7067 1.7067,-1.7067 z"
         inkscape:connector-curvature="0"
         style="fill:url(#icon-database-gradiant-9);fill-rule:evenodd"
         id="rect3197" />
      <path
         inkscape:connector-curvature="0"
         style="fill:url(#linearGradient4182);fill-rule:evenodd"
         d="m 254.71,823.74 h 9.0504 c 0.94551,0 1.7067,0.76119 1.7067,1.7067 v 8.2242 c 0,0.94551 -0.76119,1.7067 -1.7067,1.7067 H 254.71 c -0.94551,0 -1.7067,-0.76119 -1.7067,-1.7067 v -8.2242 c 0,-0.9455 0.76119,-1.7067 1.7067,-1.7067 z"
         id="path4029" />
      <path
         d="m 240.71,823.74 h 9.0504 c 0.94551,0 1.7067,0.76119 1.7067,1.7067 v 8.2242 c 0,0.94551 -0.76119,1.7067 -1.7067,1.7067 H 240.71 c -0.94551,0 -1.7067,-0.76119 -1.7067,-1.7067 v -8.2242 c 0,-0.9455 0.76119,-1.7067 1.7067,-1.7067 z"
         inkscape:connector-curvature="0"
         style="fill:url(#linearGradient4179);fill-rule:evenodd"
         id="path4033" />
      <rect
         x="241.5"
         y="831.91998"
         width="7.6875"
         height="1.5"
         style="fill:#eeeeec;fill-rule:evenodd"
         id="rect4064" />
      <path
         d="m 256.28,828.36 h 6.1215 v 4.375 H 256.28 Z m -0.78299,-1.6875 h 7.6875 v 6.75 h -7.6875 z"
         inkscape:connector-curvature="0"
         style="fill:#eeeeec;fill-rule:evenodd"
         id="rect4070" />
      <path
         d="m 270.34,826.11 -0.6875,0.71875 2.9375,2.9375 -2.9375,2.9375 0.6875,0.71875 2.9375,-2.9688 2.9688,2.9688 0.6875,-0.71875 -2.9375,-2.9375 2.9375,-2.9375 -0.6875,-0.71875 -2.9688,2.9688 z"
         inkscape:connector-curvature="0"
         style="color:#000000;text-indent:0;text-transform:none;fill:#eeeeec"
         id="path4085" />
      <path
         d="m 20,1030.3 c 86.583,0.047 173.17,0.047 259.75,0 V 842.46 H 20 Z"
         inkscape:connector-curvature="0"
         style="fill:#ffffff;fill-rule:evenodd"
         id="path4113" />
    </g>
    <g
       id="icon-database"
       transform="translate(-109.61309,-2.6458333)">
      <g
         inkscape:label="Database Icon"
         id="icon-database-body">
        <g
           transform="matrix(0.16254361,0,0,0.14964703,-133.77357,162.79598)"
           id="g16724-3-5-8">
          <path
             inkscape:connector-curvature="0"
             style="fill:url(#icon-database-gradiant-11)"
             sodipodi:nodetypes="cccssscccc"
             d="m 1618.4,-890.85 v 126.36 h 0.5249 c -0.3385,1.0131 -0.5249,1.975 -0.5249,3.0182 0,15.228 36.989,27.557 82.672,27.557 45.683,0 82.672,-12.33 82.672,-27.557 0,-1.0447 -0.1856,-2.0037 -0.5249,-3.0182 h 0.5249 v -126.36 h -165.34 z"
             id="path5488-8-9-9" />
          <ellipse
             transform="matrix(4.9627,0,0,4.9627,278.63,-3481.3)"
             style="fill:url(#icon-database-gradiant-12)"
             id="path5460-3-7-6"
             cx="286.6308"
             cy="521.77954"
             rx="16.667517"
             ry="5.5558391" />
          <path
             inkscape:connector-curvature="0"
             style="fill:#3b5d8b"
             d="m 1618.3,-800.18 c 0.6187,15.05 37.507,27.164 82.804,27.164 45.168,0 81.851,-12.042 82.672,-27.033 -14.494,12.328 -46.02,20.865 -82.672,20.865 -36.727,0 -68.35,-8.6271 -82.804,-20.996 z"
             id="path6026-3-0-9" />
          <path
             inkscape:connector-curvature="0"
             style="fill:url(#linearGradient11805-6-2)"
             d="m 1618.3,-891.51 c 0.6187,15.05 37.507,27.164 82.804,27.164 45.168,0 81.851,-12.042 82.672,-27.033 -0.9058,0.77052 -1.8509,1.4911 -2.8869,2.2308 -0.038,0.0491 -0.091,0.0823 -0.131,0.13101 -9.6253,11.663 -41.587,20.209 -79.654,20.209 -38.306,0 -70.487,-8.6955 -79.917,-20.471 -0.1046,-0.0752 -0.1596,-0.18729 -0.2625,-0.26245 -0.9185,-0.67058 -1.8123,-1.2733 -2.6245,-1.9684 z"
             id="path6030-3-4-4" />
          <path
             d="m 1618.3,-844.36 c 0.6187,15.05 37.507,27.164 82.804,27.164 45.168,0 81.851,-12.042 82.672,-27.033 -14.494,12.328 -46.02,20.865 -82.672,20.865 -36.727,0 -68.35,-8.6271 -82.804,-20.996 z"
             inkscape:connector-curvature="0"
             style="fill:#3b5d8b"
             id="path6022-8-9-02" />
          <path
             inkscape:connector-curvature="0"
             style="fill:url(#linearGradient11807-6-3)"
             d="m 1618.3,-844.36 c 0.6187,15.05 37.507,27.164 82.804,27.164 45.168,0 81.851,-12.042 82.672,-27.033 -0.2087,0.17721 -0.4427,0.3519 -0.6561,0.52491 -5.2161,13.55 -39.937,24.014 -82.016,24.014 -42.466,0 -77.55,-10.545 -82.279,-24.277 -0.1684,-0.13312 -0.3624,-0.2549 -0.5249,-0.39347 z"
             id="path6043-0-7-0" />
          <path
             d="m 1618.3,-800.18 c 0.6187,15.05 37.507,27.164 82.804,27.164 45.168,0 81.851,-12.042 82.672,-27.033 -0.2087,0.17721 -0.4427,0.3519 -0.6561,0.52491 -5.2161,13.55 -39.937,24.014 -82.016,24.014 -42.466,0 -77.55,-10.545 -82.279,-24.277 -0.1684,-0.13312 -0.3624,-0.2549 -0.5249,-0.39347 z"
             inkscape:connector-curvature="0"
             style="fill:url(#linearGradient11809-2-1)"
             id="path6054-4-6-94" />
          <path
             inkscape:connector-curvature="0"
             style="fill:#3b5d8b"
             d="m 1618.8,-754.64 c 4.7284,13.732 39.813,24.277 82.279,24.277 42.079,0 76.8,-10.464 82.016,-24.014 -14.766,12.043 -45.892,20.34 -82.016,20.34 -36.314,0 -67.608,-8.4562 -82.279,-20.602 z"
             id="path6060-7-7-4" />
        </g>
      </g>
    </g>
    

     <g transform="translate(55.93,11.886801)">
   
           <rect
       id="frame-5"
        y="0"
       x="0" 
       style="overflow:hidden;opacity:1;fill:#f9f9f9;fill-opacity:1;stroke:#000080;stroke-width:0.27460569;stroke-linecap:round;stroke-linejoin:bevel;stroke-miterlimit:4;stroke-dasharray:none;stroke-opacity:1"
       ry="0.63602972"
       height="14.450216"
       width="142.43513"
      />
    <text id="label-db-name-caption" x="5" y="10" font-family="Verdana" font-size="10" fill="blue">Hello</text>
  </g>

   

   
    <rect
       id="frame-5-2"
       style="opacity:1;fill:#f9f9f9;fill-opacity:1;stroke:#000080;stroke-width:0.22511393;stroke-linecap:round;stroke-linejoin:bevel;stroke-miterlimit:4;stroke-dasharray:none;stroke-opacity:1"
       ry="0.56948286"
       height="12.938312"
       width="106.90537"
       y="28.139772"
       x="91.841362" />

       
    <rect
       id="frame-5-2-1"
       style="opacity:1;fill:#f9f9f9;fill-opacity:1;stroke:#000080;stroke-width:0.14714092;stroke-linecap:round;stroke-linejoin:bevel;stroke-miterlimit:4;stroke-dasharray:none;stroke-opacity:1"
       ry="0.56948286"
       height="12.938313"
       width="45.673237"
       y="42.200485"
       x="152.9223" />




         
  </g>



</svg>
